<?xml version="1.0" encoding="UTF-8"?>
<svg version="1.1" xmlns="http://www.w3.org/2000/svg" width="533" height="469">
<path d="M0 0 C2.02572401 0.0853772 4.05179398 0.16292618 6.078125 0.23242188 C11.01902444 0.41884803 15.94318442 0.7113171 20.875 1.0625 C19.9290844 5.40811602 17.86079691 8.97314947 15.6875 12.8125 C15.24680176 13.59834473 14.80610352 14.38418945 14.35205078 15.19384766 C10.14053792 22.66728958 5.8090331 30.07066444 1.47192383 37.47167969 C-3.11457862 45.30477987 -7.63233972 53.17540931 -12.125 61.0625 C-17.63356309 70.73094725 -23.2006088 80.362911 -28.82495117 89.96459961 C-34.11406158 99.00877547 -39.30446922 108.10804375 -44.47827148 117.21850586 C-48.7624472 124.74401615 -53.16958468 132.16563591 -57.81640625 139.47265625 C-58.24824219 140.32730469 -58.68007812 141.18195313 -59.125 142.0625 C-58.795 143.0525 -58.465 144.0425 -58.125 145.0625 C-57.15828369 145.01285095 -56.19156738 144.9632019 -55.19555664 144.91204834 C-46.01914405 144.45958284 -36.84823503 144.15958218 -27.66188049 144.00291061 C-22.93859132 143.91760421 -18.22894255 143.78164299 -13.51171875 143.52294922 C16.14981041 141.94766602 16.14981041 141.94766602 23.5947876 147.29855347 C30.10639871 153.48237814 33.60219953 162.05668331 36.48925781 170.39263916 C38.26587883 175.09766435 40.62583819 179.56417637 42.875 184.0625 C0.635 184.0625 -41.605 184.0625 -85.125 184.0625 C-87.105 180.4325 -89.085 176.8025 -91.125 173.0625 C-92.33411422 170.91269671 -93.54898471 168.7661041 -94.7734375 166.625 C-95.38574219 165.54605469 -95.99804688 164.46710938 -96.62890625 163.35546875 C-97.89544747 161.12646196 -99.16641316 158.89996437 -100.44140625 156.67578125 C-101.04597656 155.60714844 -101.65054688 154.53851563 -102.2734375 153.4375 C-102.82177246 152.47585938 -103.37010742 151.51421875 -103.93505859 150.5234375 C-105.125 148.0625 -105.125 148.0625 -105.125 145.0625 C-104.06201172 142.80786133 -104.06201172 142.80786133 -102.5546875 140.14453125 C-101.71550781 138.65264282 -101.71550781 138.65264282 -100.859375 137.13061523 C-100.24578125 136.05626221 -99.6321875 134.98190918 -99 133.875 C-98.36835938 132.75875244 -97.73671875 131.64250488 -97.0859375 130.49243164 C-91.10376669 119.95167457 -85.00163724 109.48093332 -78.86621094 99.02880859 C-70.21227879 84.28606104 -61.63934969 69.4995793 -53.16992188 54.65014648 C-48.54832104 46.54777103 -43.90931915 38.45577327 -39.25 30.375 C-38.68031494 29.38580566 -38.11062988 28.39661133 -37.52368164 27.37744141 C-36.37546754 25.38777414 -35.20434552 23.41117402 -34.01220703 21.44750977 C-32.54092468 18.8085279 -31.37812647 16.32718351 -30.23388672 13.55053711 C-23.62383836 -1.37051857 -15.19913043 -1.11481737 0 0 Z M-61.125 144.0625 C-60.125 146.0625 -60.125 146.0625 -60.125 146.0625 Z " fill="#0C2A73" transform="translate(298.125,120.9375)"/>
<path d="M0 0 C0.97918775 3.07556958 1.1498998 3.68592423 -0.3125 6.75 C-0.869375 7.4925 -1.42625 8.235 -2 9 C-2.66 9 -3.32 9 -4 9 C-4 9.99 -4 10.98 -4 12 C1.46263311 12.04952523 6.92513482 12.08577896 12.38793945 12.10986328 C14.24538449 12.11990615 16.10281379 12.13354304 17.96020508 12.15087891 C20.63366591 12.17520261 23.30691726 12.18650033 25.98046875 12.1953125 C26.80773972 12.20563507 27.63501068 12.21595764 28.48735046 12.22659302 C32.78659015 12.22742519 36.07985785 11.99986069 40 10 C40 10.66 40 11.32 40 12 C40.96671631 11.95035095 41.93343262 11.9007019 42.92944336 11.84954834 C52.10585595 11.39708284 61.27676497 11.09708218 70.46311951 10.94041061 C75.18640868 10.85510421 79.89605745 10.71914299 84.61328125 10.46044922 C114.27481041 8.88516602 114.27481041 8.88516602 121.7197876 14.23605347 C128.23139871 20.41987814 131.72719953 28.99418331 134.61425781 37.33013916 C136.39087883 42.03516435 138.75083819 46.50167637 141 51 C98.76 51 56.52 51 13 51 C10.03 45.555 10.03 45.555 7 40 C5.79088578 37.85019671 4.57601529 35.7036041 3.3515625 33.5625 C2.73925781 32.48355469 2.12695312 31.40460938 1.49609375 30.29296875 C0.22955253 28.06396196 -1.04141316 25.83746437 -2.31640625 23.61328125 C-2.92097656 22.54464844 -3.52554688 21.47601563 -4.1484375 20.375 C-4.97093994 18.93253906 -4.97093994 18.93253906 -5.81005859 17.4609375 C-7 15 -7 15 -7 12 C-5.89891366 9.90175639 -4.72235903 7.8424891 -3.5 5.8125 C-2.8503125 4.72582031 -2.200625 3.63914062 -1.53125 2.51953125 C-1.0259375 1.68808594 -0.520625 0.85664063 0 0 Z " fill="#FEC80B" transform="translate(200,254)"/>
<path d="M0 0 C1.87295532 -0.36076355 1.87295532 -0.36076355 4.17431641 -0.34057617 C5.46542831 -0.34023628 5.46542831 -0.34023628 6.78262329 -0.33988953 C7.71287323 -0.32440567 8.64312317 -0.30892181 9.6015625 -0.29296875 C10.55316254 -0.28872391 11.50476257 -0.28447906 12.48519897 -0.28010559 C15.53208414 -0.26327896 18.57831391 -0.22561954 21.625 -0.1875 C23.68749046 -0.17245831 25.74999127 -0.15876901 27.8125 -0.14648438 C32.8752535 -0.11336239 37.93751554 -0.06155284 43 0 C42.05408722 4.34560306 39.98583739 7.91067647 37.8125 11.75 C37.37252686 12.53439453 36.93255371 13.31878906 36.47924805 14.12695312 C31.66934807 22.66094074 26.71295596 31.1100548 21.76171875 39.5625 C17.68643494 46.52457848 13.65292284 53.51045798 9.625 60.5 C9.2901358 61.08096436 8.95527161 61.66192871 8.61026001 62.26049805 C6.73937204 65.50653751 4.86929309 68.75304186 3 72 C2.01 72 1.02 72 0 72 C-0.33 69.69 -0.66 67.38 -1 65 C-2.485 64.505 -2.485 64.505 -4 64 C-5.65910625 61.58701916 -7.1601253 59.21322751 -8.625 56.6875 C-9.03234375 56.01009766 -9.4396875 55.33269531 -9.859375 54.63476562 C-11.75667883 51.42128579 -13.21694102 48.67774338 -14 45 C-14.66 45 -15.32 45 -16 45 C-18.38598167 41.42102749 -18.78579503 39.28409945 -19 35 C-16.51247592 28.0200817 -12.57419126 21.67987732 -8.9375 15.25 C-8.30005859 14.11433594 -7.66261719 12.97867188 -7.00585938 11.80859375 C-2.30675595 3.46013393 -2.30675595 3.46013393 0 0 Z " fill="#951B58" transform="translate(276,122)"/>
<path d="M0 0 C5.90815343 -0.09890033 11.81582472 -0.17148371 17.72460938 -0.21972656 C19.73446038 -0.23983805 21.74425291 -0.26713115 23.75390625 -0.30175781 C26.64337596 -0.35029634 29.53207191 -0.37297322 32.421875 -0.390625 C33.31992859 -0.41127014 34.21798218 -0.43191528 35.14324951 -0.45318604 C41.35004891 -0.45541693 41.35004891 -0.45541693 44.39160156 1.67578125 C46.17617034 4.25457523 47.79266374 6.83317014 49.3125 9.578125 C49.91320312 10.65707031 50.51390625 11.73601562 51.1328125 12.84765625 C52.05707031 14.53181641 52.05707031 14.53181641 53 16.25 C53.92425781 17.91095703 53.92425781 17.91095703 54.8671875 19.60546875 C58.04641636 25.34308993 61.09463015 31.1198288 64 37 C58.02118414 37.17919636 52.04935771 37.271962 46.06787109 37.28686523 C44.03661644 37.30383816 42.00541249 37.3438869 39.97509766 37.40795898 C23.1712871 37.9147929 23.1712871 37.9147929 18.0859375 33.43017578 C15.99337304 30.04036275 14.49034122 26.69045242 13 23 C11.82737483 20.96339405 10.62004067 18.94628513 9.375 16.953125 C8.2487867 15.05280187 7.12377193 13.15176788 6 11.25 C5.41605469 10.26773437 4.83210938 9.28546875 4.23046875 8.2734375 C3.68003906 7.34273438 3.12960937 6.41203125 2.5625 5.453125 C2.06878906 4.61942383 1.57507813 3.78572266 1.06640625 2.92675781 C0 1 0 1 0 0 Z " fill="#B50B10" transform="translate(277,268)"/>
<path d="M0 0 C5.35700426 0.11821673 10.71382175 0.24246299 16.07055664 0.37231445 C17.89310904 0.41564287 19.71570148 0.45731947 21.53833008 0.49731445 C24.15718661 0.55506762 26.77584195 0.61874756 29.39453125 0.68359375 C30.21025101 0.70030624 31.02597076 0.71701874 31.8664093 0.73423767 C35.14179544 0.82013245 37.87256401 0.95752134 41 2 C40.46169478 6.76021968 39.11684712 10.06778597 36.7265625 14.203125 C36.23994644 15.0489212 36.23994644 15.0489212 35.74349976 15.9118042 C35.0603445 17.09417962 34.37265568 18.27394618 33.68066406 19.45117188 C32.62368814 21.25223539 31.58443762 23.06269781 30.546875 24.875 C25.39381927 33.73745382 25.39381927 33.73745382 22 36 C20.12068176 36.24050903 20.12068176 36.24050903 17.98754883 36.22705078 C17.18694534 36.22689972 16.38634186 36.22674866 15.56147766 36.22659302 C14.70201035 36.21627045 13.84254303 36.20594788 12.95703125 36.1953125 C12.0734343 36.1924826 11.18983734 36.18965271 10.27946472 36.18673706 C7.45700546 36.17554097 4.63486338 36.15043751 1.8125 36.125 C-0.10090688 36.11496946 -2.01431873 36.10584374 -3.92773438 36.09765625 C-8.61861182 36.07560351 -13.30925213 36.04107762 -18 36 C-17.18490601 32.1831665 -17.18490601 32.1831665 -15.52075195 30.53466797 C-13.59890153 28.59523118 -13.30089153 27.0846562 -12.66796875 24.4453125 C-11.06445137 18.69022274 -8.39897505 13.95673183 -5.3125 8.875 C-4.80138672 8.01390625 -4.29027344 7.1528125 -3.76367188 6.265625 C-2.51861624 4.17113888 -1.26411617 2.0830171 0 0 Z " fill="#07783D" transform="translate(213,231)"/>
<path d="M0 0 C1 4 1 4 -0.3125 6.75 C-0.869375 7.4925 -1.42625 8.235 -2 9 C-2.66 9 -3.32 9 -4 9 C-4 9.99 -4 10.98 -4 12 C9.2 12 22.4 12 36 12 C36 12.99 36 13.98 36 15 C35.34 15 34.68 15 34 15 C33.731875 15.7425 33.46375 16.485 33.1875 17.25 C32 20 32 20 30.6328125 21.75390625 C28.58128024 24.5759901 27.19322346 27.54105718 25.6875 30.6875 C19.58642093 43.12512698 19.58642093 43.12512698 16 47 C14.67866903 47.37811818 13.34492635 47.71704772 12 48 C5.33333333 36.66666667 -1.33333333 25.33333333 -8 14 C-5.36 9.38 -2.72 4.76 0 0 Z " fill="#88B81D" transform="translate(200,254)"/>
<path d="M0 0 C1 4 2 8 3 12 C3.66 12 4.32 12 5 12 C5.29132813 12.53367188 5.58265625 13.06734375 5.8828125 13.6171875 C8.26301242 17.94346283 10.68951747 22.24054084 13.1875 26.5 C13.92033203 27.75296875 13.92033203 27.75296875 14.66796875 29.03125 C15.85449259 31.13149274 15.85449259 31.13149274 18 32 C18.40729228 34.32156597 18.74438677 36.6568787 19 39 C19.66 39 20.32 39 21 39 C20.67 39.99 20.34 40.98 20 42 C19.67 41.34 19.34 40.68 19 40 C5.47 40 -8.06 40 -22 40 C-20.51338481 35.54015442 -19.27228191 32.4411003 -16.953125 28.515625 C-16.355 27.49726563 -15.756875 26.47890625 -15.140625 25.4296875 C-14.20476562 23.85574219 -14.20476562 23.85574219 -13.25 22.25 C-12.6415625 21.21617187 -12.033125 20.18234375 -11.40625 19.1171875 C-7.6382199 12.72441848 -3.82721159 6.3574826 0 0 Z " fill="#0A7CCC" transform="translate(257,155)"/>
<path d="M0 0 C13.86 0 27.72 0 42 0 C41.11403109 5.31581346 40.35711871 7.64255199 37.76171875 12.09765625 C36.77848633 13.79438477 36.77848633 13.79438477 35.77539062 15.52539062 C35.4322583 16.10651611 35.08912598 16.6876416 34.7355957 17.28637695 C33.69161493 19.05552675 32.66215489 20.83250228 31.63476562 22.61132812 C28.67390931 27.68501445 25.76832453 32.47811436 22 37 C21.6376123 36.35562988 21.27522461 35.71125977 20.90185547 35.04736328 C19.22768637 32.07242391 17.55135506 29.09870811 15.875 26.125 C15.30523437 25.11179688 14.73546875 24.09859375 14.1484375 23.0546875 C12.44249237 20.03051205 10.72490928 17.01339573 9 14 C8.45118164 13.03674805 7.90236328 12.07349609 7.33691406 11.08105469 C6.55525879 9.73769043 6.55525879 9.73769043 5.7578125 8.3671875 C5.29777832 7.5716748 4.83774414 6.77616211 4.36376953 5.95654297 C2.98710665 3.72750362 2.98710665 3.72750362 0 2 C0 1.34 0 0.68 0 0 Z " fill="#02479A" transform="translate(234,195)"/>
<path d="M0 0 C13.53 0 27.06 0 41 0 C40.0810689 4.59465551 38.7155492 7.6777006 36.40234375 11.61328125 C36.04862198 12.22769577 35.69490021 12.84211029 35.33045959 13.47514343 C34.20602361 15.424804 33.07195172 17.36865368 31.9375 19.3125 C31.17057957 20.63829933 30.40429646 21.96446754 29.63867188 23.29101562 C27.76646622 26.53166097 25.88560176 29.76713245 24 33 C23.01 33 22.02 33 21 33 C20.34 33.66 19.68 34.32 19 35 C16.40934241 30.49033679 13.87174204 25.95641564 11.3671875 21.3984375 C9.89849226 18.82192641 8.32646271 16.3242803 6.75 13.8125 C4.55556488 10.20574894 3.22639322 7.30147117 3 3 C2.01 2.67 1.02 2.34 0 2 C0 1.34 0 0.68 0 0 Z " fill="#651845" transform="translate(277,123)"/>
<path d="M0 0 C0.99 0.33 1.98 0.66 3 1 C1.49953027 5.05792759 -0.4356143 8.68865861 -2.58984375 12.4375 C-2.93503555 13.04005615 -3.28022736 13.6426123 -3.63587952 14.26342773 C-4.73339101 16.17737598 -5.83542555 18.0886763 -6.9375 20 C-7.67411494 21.28368963 -8.4104458 22.56754231 -9.14648438 23.8515625 C-11.09049488 27.23856315 -13.03768432 30.62355571 -15 34 C-15.76485718 35.43666016 -15.76485718 35.43666016 -16.54516602 36.90234375 C-17.02526123 37.59457031 -17.50535645 38.28679687 -18 39 C-18.99 39 -19.98 39 -21 39 C-21.33 36.69 -21.66 34.38 -22 32 C-22.99 31.67 -23.98 31.34 -25 31 C-26.65910625 28.58701916 -28.1601253 26.21322751 -29.625 23.6875 C-30.03234375 23.01009766 -30.4396875 22.33269531 -30.859375 21.63476562 C-32.75667883 18.42128579 -34.21694102 15.67774338 -35 12 C-35.66 12 -36.32 12 -37 12 C-39 9 -39 9 -39 4 C-26.46 4 -13.92 4 -1 4 C-0.67 2.68 -0.34 1.36 0 0 Z " fill="#E70172" transform="translate(297,155)"/>
<path d="M0 0 C2.66340608 3.22959653 5.03062138 6.4750952 7.1875 10.0625 C7.69667969 10.89910156 8.20585937 11.73570312 8.73046875 12.59765625 C9.87991989 14.77277149 10.53954591 16.59787206 11 19 C11.66 19 12.32 19 13 19 C13.96462975 20.70478591 14.92141054 22.41401412 15.875 24.125 C16.40867188 25.07632812 16.94234375 26.02765625 17.4921875 27.0078125 C19 30 19 30 21 36 C8.13 36 -4.74 36 -18 36 C-17 32 -17 32 -15.52075195 30.53466797 C-13.59890153 28.59523118 -13.30089153 27.0846562 -12.66796875 24.4453125 C-11.06445137 18.69022274 -8.39897505 13.95673183 -5.3125 8.875 C-4.80138672 8.01390625 -4.29027344 7.1528125 -3.76367188 6.265625 C-2.51861624 4.17113888 -1.26411617 2.0830171 0 0 Z " fill="#279334" transform="translate(213,231)"/>
<path d="M0 0 C3.26426107 2.99979755 5.39911006 6.06401394 7.6015625 9.90234375 C8.25640625 11.03994141 8.91125 12.17753906 9.5859375 13.34960938 C9.92077148 13.93895264 10.25560547 14.5282959 10.60058594 15.13549805 C11.62218911 16.93255549 12.65398618 18.72344321 13.6875 20.51367188 C16.43439974 25.3098891 18.94247875 29.85619687 21 35 C7.8 35 -5.4 35 -19 35 C-17.36573446 30.09720339 -15.56007808 26.2994195 -12.875 22 C-12.07030939 20.68699693 -11.26695709 19.37317286 -10.46484375 18.05859375 C-10.05733887 17.3919873 -9.64983398 16.72538086 -9.22998047 16.03857422 C-7.24295159 12.74526514 -5.33704894 9.40681283 -3.4375 6.0625 C-3.09122559 5.45341797 -2.74495117 4.84433594 -2.38818359 4.21679688 C-1.59073608 2.81198396 -0.79514033 1.40612009 0 0 Z " fill="#E54811" transform="translate(276,268)"/>
<path d="M0 0 C0.33 0.66 0.66 1.32 1 2 C27.4 2.33 53.8 2.66 81 3 C80.67 3.66 80.34 4.32 80 5 C65.81 4.67 51.62 4.34 37 4 C36.34 5.65 35.68 7.3 35 9 C34.3132954 10.34795167 33.60097852 11.68317173 32.86328125 13.00390625 C32.45013672 13.74576172 32.03699219 14.48761719 31.61132812 15.25195312 C31.18271484 16.01443359 30.75410156 16.77691406 30.3125 17.5625 C29.90322266 18.29791016 29.49394531 19.03332031 29.07226562 19.79101562 C25.46518344 26.2460859 21.72745127 32.61008353 18 39 C31.53 39 45.06 39 59 39 C59 39.66 59 40.32 59 41 C30.95 41 2.9 41 -26 41 C-26 40.01 -26 39.02 -26 38 C-11.81 38.33 2.38 38.66 17 39 C17 27.45 17 15.9 17 4 C10.4 4 3.8 4 -3 4 C-2.67 3.01 -2.34 2.02 -2 1 C-1.34 0.67 -0.68 0.34 0 0 Z " fill="#F5A537" transform="translate(239,264)"/>
<path d="M0 0 C0.66 0 1.32 0 2 0 C4.04856691 3.51744527 6.09303955 7.03723674 8.1340332 10.55908203 C8.8263195 11.75241354 9.51964792 12.94514119 10.21411133 14.13720703 C11.22242721 15.86845264 12.22646203 17.60218931 13.23046875 19.3359375 C13.83270264 20.37282715 14.43493652 21.4097168 15.05541992 22.47802734 C17.50454928 26.91382648 19.73396608 31.46793217 22 36 C7.81 35.67 -6.38 35.34 -21 35 C-21 34.67 -21 34.34 -21 34 C-14.07 34 -7.14 34 0 34 C0 22.78 0 11.56 0 0 Z " fill="#A61821" transform="translate(319,269)"/>
<path d="M0 0 C0.33 0.66 0.66 1.32 1 2 C0.67 2.66 0.34 3.32 0 4 C0.72445313 4.09539062 1.44890625 4.19078125 2.1953125 4.2890625 C5.41516224 5.10523611 7.23653989 6.37718835 9.875 8.375 C12.86547026 10.56085943 15.61697679 12.44139489 19.0625 13.8125 C22 15 22 15 23 17 C25.30965848 18.05352843 27.6429774 19.05719096 30 20 C29.67 20.66 29.34 21.32 29 22 C9.695 21.505 9.695 21.505 -10 21 C-8.46565098 14.86260392 -7.19409618 11.03142142 -3.875 6 C-3.50246094 5.41605469 -3.12992187 4.83210937 -2.74609375 4.23046875 C-1.84049577 2.81402063 -0.92165192 1.40605502 0 0 Z " fill="#AE0F6B" transform="translate(267,138)"/>
<path d="M0 0 C3.37719288 0.62653805 5.58116593 1.90461176 8.375 3.875 C11.81726891 6.23910311 15.24546861 8.16267613 19 10 C20.34103771 10.82087763 21.67389862 11.65520574 23 12.5 C26.23815017 14.56120713 29.52879137 16.3511759 33 18 C31.40376856 22.39383706 29.21975667 26.28995807 26.875 30.3125 C26.50246094 30.95767578 26.12992187 31.60285156 25.74609375 32.26757812 C24.83367787 33.84675945 23.91724491 35.42361864 23 37 C19.33297511 32.76686758 16.77134632 28.2099426 14.125 23.3125 C13.24195657 21.70383863 12.35784776 20.09576161 11.47265625 18.48828125 C11.04871582 17.71693848 10.62477539 16.9455957 10.18798828 16.15087891 C8.67705681 13.41530426 7.13887713 10.69840997 5.5625 8 C5.13066406 7.2575 4.69882813 6.515 4.25390625 5.75 C2.94854486 3.71055471 2.94854486 3.71055471 0 2 C0 1.34 0 0.68 0 0 Z " fill="#0E68B4" transform="translate(234,195)"/>
<path d="M0 0 C13.2 0 26.4 0 40 0 C39.06939278 4.65303609 37.97106653 7.23099994 35.625 11.25 C34.71621094 12.83554688 34.71621094 12.83554688 33.7890625 14.453125 C32 17 32 17 29 18 C28.01 17.34 27.02 16.68 26 16 C26 15.34 26 14.68 26 14 C25.43410156 13.87882813 24.86820312 13.75765625 24.28515625 13.6328125 C23.18494141 13.38144531 23.18494141 13.38144531 22.0625 13.125 C21.33160156 12.96257812 20.60070312 12.80015625 19.84765625 12.6328125 C18 12 18 12 17 10 C14.07551805 8.43010938 11.08126625 7.04562033 8.078125 5.6328125 C5 4 5 4 0 0 Z " fill="#3F0A27" transform="translate(278,123)"/>
<path d="M0 0 C0.33 0 0.66 0 1 0 C1 11.55 1 23.1 1 35 C-5.93 35 -12.86 35 -20 35 C-16.0625 27.625 -16.0625 27.625 -14.82446289 25.30712891 C-12.87986661 21.67037724 -12.87986661 21.67037724 -11 18 C-10.34 18 -9.68 18 -9 18 C-8.74347656 17.14148438 -8.48695313 16.28296875 -8.22265625 15.3984375 C-6.94885549 11.85784113 -5.35097884 8.86073666 -3.4375 5.625 C-2.81746094 4.56539063 -2.19742187 3.50578125 -1.55859375 2.4140625 C-0.78708984 1.21910156 -0.78708984 1.21910156 0 0 Z " fill="#8A060B" transform="translate(318,268)"/>
<path d="M0 0 C4.38889325 0.66498383 7.9811485 2.18757677 12 4 C12 4.66 12 5.32 12 6 C13.32 6 14.64 6 16 6 C16 6.66 16 7.32 16 8 C16.94875 8.103125 17.8975 8.20625 18.875 8.3125 C22 9 22 9 24 12 C24.680625 12.309375 25.36125 12.61875 26.0625 12.9375 C28 14 28 14 28.72436523 15.85058594 C29.1924274 19.50055875 26.9098736 22.24534608 25.0625 25.25 C24.67642578 25.8996875 24.29035156 26.549375 23.89257812 27.21875 C22.93941582 28.81912129 21.97114076 30.4104742 21 32 C20.01 32 19.02 32 18 32 C17.67 29.69 17.34 27.38 17 25 C16.01 24.67 15.02 24.34 14 24 C12.34089375 21.58701916 10.8398747 19.21322751 9.375 16.6875 C8.96765625 16.01009766 8.5603125 15.33269531 8.140625 14.63476562 C6.24332117 11.42128579 4.78305898 8.67774338 4 5 C3.34 5 2.68 5 2 5 C1.34 3.35 0.68 1.7 0 0 Z " fill="#EC048F" transform="translate(258,162)"/>
<path d="M0 0 C3.38592904 3.38592904 5.2745016 5.84685223 7.6015625 9.90234375 C8.25640625 11.03994141 8.91125 12.17753906 9.5859375 13.34960938 C9.92077148 13.93895264 10.25560547 14.5282959 10.60058594 15.13549805 C11.62218911 16.93255549 12.65398618 18.72344321 13.6875 20.51367188 C16.43439974 25.3098891 18.94247875 29.85619687 21 35 C14.4 35 7.8 35 1 35 C0.505 17.675 0.505 17.675 0 0 Z " fill="#ED6320" transform="translate(276,268)"/>
<path d="M0 0 C6.6 0 13.2 0 20 0 C18.33516769 4.16208077 16.51455762 7.8899777 14.375 11.8125 C14.05015625 12.40998047 13.7253125 13.00746094 13.390625 13.62304688 C12.59620849 15.08337135 11.79844624 16.54187491 11 18 C10.34 18 9.68 18 9 18 C8.79375 18.78375 8.5875 19.5675 8.375 20.375 C3.72340426 32.63829787 3.72340426 32.63829787 -1 35 C-0.67 23.45 -0.34 11.9 0 0 Z " fill="#C6171F" transform="translate(298,268)"/>
<path d="M0 0 C4.9296024 -0.02471455 9.85916874 -0.04286691 14.78881836 -0.05493164 C16.46590808 -0.05996113 18.14299342 -0.06678548 19.82006836 -0.07543945 C22.230317 -0.08756559 24.64050768 -0.09324215 27.05078125 -0.09765625 C27.80087967 -0.10281754 28.55097809 -0.10797882 29.32380676 -0.11329651 C32.48951232 -0.11363785 34.97337972 -0.00887343 38 1 C37.66830805 7.30214697 34.32676012 11.85216936 31 17 C22.70151652 14.81618856 16.04640765 10.61999071 8.83886719 6.12548828 C5.93192971 4.34628199 2.96811077 2.67480801 0 1 C0 0.67 0 0.34 0 0 Z " fill="#045A29" transform="translate(216,232)"/>
<path d="M0 0 C6.6 0 13.2 0 20 0 C20 11.22 20 22.44 20 34 C17.32458953 30.65573691 15.25758207 27.96208593 13.25 24.3125 C12.60804688 23.16201172 12.60804688 23.16201172 11.953125 21.98828125 C11 20 11 20 11 18 C10.34 18 9.68 18 9 18 C8.1646875 16.2675 8.1646875 16.2675 7.3125 14.5 C5.43241422 10.71287381 3.28406008 7.18854867 0.953125 3.6640625 C0 2 0 2 0 0 Z " fill="#F4880E" transform="translate(236,268)"/>
<path d="M0 0 C0.33 0.99 0.66 1.98 1 3 C1.66 3 2.32 3 3 3 C3 3.66 3 4.32 3 5 C3.63808594 5.22816406 4.27617187 5.45632812 4.93359375 5.69140625 C9.14197156 7.48733818 13.07206184 9.70556001 17.0625 11.9375 C17.86494141 12.38029297 18.66738281 12.82308594 19.49414062 13.27929688 C20.27080078 13.71177734 21.04746094 14.14425781 21.84765625 14.58984375 C22.54898682 14.98034912 23.25031738 15.37085449 23.97290039 15.77319336 C26.07221375 17.04370397 28.03693076 18.52769807 30 20 C17.13 20 4.26 20 -9 20 C-8 16 -8 16 -6.53515625 14.5625 C-4.53607901 12.52781579 -4.15172384 10.74261953 -3.4375 8 C-2.57976883 4.74352913 -1.90289858 2.85434787 0 0 Z " fill="#39AB46" transform="translate(204,247)"/>
<path d="M0 0 C0.33 0.66 0.66 1.32 1 2 C1.55558594 2.13019531 2.11117187 2.26039063 2.68359375 2.39453125 C5.89612069 3.23423053 8.26721325 4.90435839 11.0625 6.6875 C16.91336546 10.37697906 22.88422041 13.76439717 29 17 C29 17.33 29 17.66 29 18 C28.06728271 17.99476318 27.13456543 17.98952637 26.17358398 17.98413086 C22.68659843 17.96700698 19.1996581 17.95451007 15.71264648 17.94506836 C14.2084075 17.94006445 12.70417332 17.93325927 11.19995117 17.92456055 C9.02781991 17.91232116 6.85575341 17.90673214 4.68359375 17.90234375 C2.72764282 17.89448853 2.72764282 17.89448853 0.73217773 17.88647461 C-2.95201033 17.99854025 -6.36971466 18.40625214 -10 19 C-8.40376856 14.60616294 -6.21975667 10.71004193 -3.875 6.6875 C-3.50246094 6.04232422 -3.12992188 5.39714844 -2.74609375 4.73242188 C-1.83367787 3.15324055 -0.91724491 1.57638136 0 0 Z " fill="#224992" transform="translate(224,212)"/>
<path d="M0 0 C0.25136719 0.61359375 0.50273437 1.2271875 0.76171875 1.859375 C2.21267569 4.36765387 3.24475185 4.97327179 5.8125 6.25 C11.11118676 9.00704027 16.12751618 12.15110946 21.1796875 15.328125 C23.9349778 17.09596002 23.9349778 17.09596002 27 18 C27 18.66 27 19.32 27 20 C15.78 20 4.56 20 -7 20 C-7 11 -7 11 -3.5 5.5 C-2.8503125 4.4584375 -2.200625 3.416875 -1.53125 2.34375 C-0.77328125 1.18359375 -0.77328125 1.18359375 0 0 Z " fill="#0C9CDC" transform="translate(246,174)"/>
<path d="M0 0 C-0.99 0.495 -0.99 0.495 -2 1 C-2.67441131 2.6635479 -3.3400321 4.33066942 -4 6 C-4.44859375 6.5775 -4.8971875 7.155 -5.359375 7.75 C-7.4174216 10.5724639 -8.80498962 13.53732315 -10.3125 16.6875 C-13.11548717 22.45015838 -16.2407089 27.7948277 -20 33 C-21.09828769 29.45811722 -21.11445011 26.1790238 -21.09765625 22.484375 C-21.09443359 21.23398437 -21.09121094 19.98359375 -21.08789062 18.6953125 C-21.07951172 17.39335937 -21.07113281 16.09140625 -21.0625 14.75 C-21.05798828 13.43257813 -21.05347656 12.11515625 -21.04882812 10.7578125 C-21.03704316 7.50516259 -21.02059011 4.25260416 -21 1 C-18.43761495 0.83138242 -15.87511576 0.66504227 -13.3125 0.5 C-12.59126953 0.45230469 -11.87003906 0.40460938 -11.12695312 0.35546875 C-7.41171286 0.11796481 -3.72305126 -0.05874637 0 0 Z " fill="#A9CC2F" transform="translate(236,268)"/>
<path d="M0 0 C0.33 0 0.66 0 1 0 C1 9.9 1 19.8 1 30 C-11 30 -11 30 -16 29 C-15.40165275 24.85701333 -13.99335715 21.81805623 -11.9375 18.1875 C-11.38964844 17.21167969 -10.84179688 16.23585938 -10.27734375 15.23046875 C-9.85582031 14.49441406 -9.43429688 13.75835937 -9 13 C-8.34 13 -7.68 13 -7 13 C-6.731875 12.4225 -6.46375 11.845 -6.1875 11.25 C-5 9 -5 9 -3.5 7.0625 C-1.86012671 4.80767423 -0.94366089 2.61321478 0 0 Z " fill="#FCB705" transform="translate(234,272)"/>
<path d="M0 0 C0.97918775 3.07556958 1.1498998 3.68592423 -0.3125 6.75 C-0.869375 7.4925 -1.42625 8.235 -2 9 C-2.66 9 -3.32 9 -4 9 C-4 9.99 -4 10.98 -4 12 C9.2 12 22.4 12 36 12 C36 12.66 36 13.32 36 14 C31.56197365 15.11169496 27.22932573 15.114854 22.6875 15.0625 C20.150625 15.041875 17.61375 15.02125 15 15 C15 23.91 15 32.82 15 42 C15.66 42.33 16.32 42.66 17 43 C16.34 43 15.68 43 15 43 C15 44.65 15 46.3 15 48 C13.171875 47.77734375 13.171875 47.77734375 11 47 C9.515625 45.00390625 9.515625 45.00390625 8.25 42.5625 C7.82203125 41.75941406 7.3940625 40.95632813 6.953125 40.12890625 C6 38 6 38 6 36 C6.99 36.33 7.98 36.66 9 37 C8.67 37.66 8.34 38.32 8 39 C8.66 39 9.32 39 10 39 C10 39.99 10 40.98 10 42 C11.485 42.495 11.485 42.495 13 43 C13.33 33.76 13.66 24.52 14 15 C8.06 15 2.12 15 -4 15 C-4.33 16.32 -4.66 17.64 -5 19 C-6.73828125 16.4296875 -6.73828125 16.4296875 -8 13 C-6.85416712 10.30283843 -5.84999324 8.45407135 -4.1875 6.125 C-3.79240234 5.53203125 -3.39730469 4.9390625 -2.99023438 4.328125 C-2.01483433 2.87090084 -1.01015216 1.43335275 0 0 Z " fill="#A1CC4E" transform="translate(200,254)"/>
<path d="M0 0 C3.7150579 3.16467895 5.65590449 6.80177594 7.8515625 11.07421875 C8.8566311 13.1529581 8.8566311 13.1529581 11 14 C11.40729228 16.32156597 11.74438677 18.6568787 12 21 C12.66 21 13.32 21 14 21 C13.505 22.485 13.505 22.485 13 24 C12.505 23.01 12.505 23.01 12 22 C-1.53 22 -15.06 22 -29 22 C-28.34 20.02 -27.68 18.04 -27 16 C-26.34 15.67 -25.68 15.34 -25 15 C-25 16.98 -25 18.96 -25 21 C-13.78 20.67 -2.56 20.34 9 20 C9 19.01 9 18.02 9 17 C9 16.34 9 15.68 9 15 C8.38125 14.95875 7.7625 14.9175 7.125 14.875 C6.42375 14.58625 5.7225 14.2975 5 14 C3.875 11 3.875 11 3 8 C2.34 7.67 1.68 7.34 1 7 C0.59270772 4.67843403 0.25561323 2.3431213 0 0 Z " fill="#278FD4" transform="translate(264,173)"/>
<path d="M0 0 C3 3 3 3 9 15 C-5.19 14.67 -19.38 14.34 -34 14 C-34 13.67 -34 13.34 -34 13 C-33.0212793 12.97494385 -32.04255859 12.9498877 -31.03417969 12.92407227 C-27.39619296 12.82976017 -23.75838657 12.72959797 -20.12060547 12.62768555 C-18.54740626 12.58442662 -16.97416283 12.54274526 -15.40087891 12.50268555 C-13.13690885 12.44476338 -10.87315949 12.38113286 -8.609375 12.31640625 C-7.55759064 12.29133751 -7.55759064 12.29133751 -6.48455811 12.26576233 C-3.19766179 12.16648978 -0.14857995 11.99187328 3 11 C3 9.68 3 8.36 3 7 C2.01 7.33 1.02 7.66 0 8 C-0.66 7.34 -1.32 6.68 -2 6 C-1.64644564 3.73725212 -1.02455574 2.04911148 0 0 Z " fill="#B45257" transform="translate(332,290)"/>
<path d="M0 0 C28.05 0.33 56.1 0.66 85 1 C85 1.66 85 2.32 85 3 C56.95 3 28.9 3 0 3 C0 2.01 0 1.02 0 0 Z " fill="#F2B56D" transform="translate(213,302)"/>
<path d="M0 0 C0.71923645 0.02123932 1.4384729 0.04247864 2.17950439 0.06436157 C3.6889327 0.11035847 5.19827496 0.1592621 6.70751953 0.2109375 C9.02228498 0.28928793 11.33718713 0.35621765 13.65234375 0.421875 C15.12241724 0.46807365 16.59247039 0.51492549 18.0625 0.5625 C18.75518982 0.58234955 19.44787964 0.6021991 20.16156006 0.62265015 C25.0350749 0.79878745 25.0350749 0.79878745 27.265625 1.9140625 C26.935625 3.5640625 26.605625 5.2140625 26.265625 6.9140625 C25.770625 5.4290625 25.770625 5.4290625 25.265625 3.9140625 C5.960625 3.4190625 5.960625 3.4190625 -13.734375 2.9140625 C-13.734375 2.2540625 -13.734375 1.5940625 -13.734375 0.9140625 C-9.10243085 -0.01610091 -4.70007644 -0.16407193 0 0 Z " fill="#155066" transform="translate(228.734375,229.0859375)"/>
<path d="M0 0 C3.09321664 3.62652985 4.79596968 6.59193936 7 11 C-6.53 11 -20.06 11 -34 11 C-33.34 9.35 -32.68 7.7 -32 6 C-31.67 6.99 -31.34 7.98 -31 9 C-20.11 9 -9.22 9 2 9 C1.34 7.35 0.68 5.7 0 4 C0 2.68 0 1.36 0 0 Z " fill="#FAC119" transform="translate(249,292)"/>
<path d="M0 0 C3.75376152 1.25125384 4.24073289 2.5652404 6 6 C6 6.66 6 7.32 6 8 C5.51917969 8.40863281 5.03835937 8.81726563 4.54296875 9.23828125 C2.32561454 11.76999453 2.49063958 13.87410383 2.3125 17.1875 C2.24675781 18.27417969 2.18101562 19.36085938 2.11328125 20.48046875 C2.07589844 21.31191406 2.03851563 22.14335937 2 23 C1.67 23 1.34 23 1 23 C0.67 16.73 0.34 10.46 0 4 C-0.99 6.31 -1.98 8.62 -3 11 C-5.6875 13.9375 -5.6875 13.9375 -8 16 C-6.83654502 9.95003409 -3.44000957 4.98208283 0 0 Z " fill="#FEC10D" transform="translate(234,269)"/>
<path d="M0 0 C0.97918775 3.07556958 1.1498998 3.68592423 -0.3125 6.75 C-0.869375 7.4925 -1.42625 8.235 -2 9 C-2.66 9 -3.32 9 -4 9 C-4 9.99 -4 10.98 -4 12 C9.2 12 22.4 12 36 12 C36 12.66 36 13.32 36 14 C22.14 14 8.28 14 -6 14 C-4.875 7.25 -4.875 7.25 -2.4375 3.625 C-1.98246094 2.93664062 -1.52742187 2.24828125 -1.05859375 1.5390625 C-0.53458984 0.77722656 -0.53458984 0.77722656 0 0 Z " fill="#5FB63C" transform="translate(200,254)"/>
<path d="M0 0 C2.45647318 2.25465767 4.05012526 4.55845486 5.69921875 7.44921875 C6.18583984 8.29677734 6.67246094 9.14433594 7.17382812 10.01757812 C7.67333984 10.89865234 8.17285156 11.77972656 8.6875 12.6875 C9.19861328 13.58017578 9.70972656 14.47285156 10.23632812 15.39257812 C11.49518858 17.59264265 12.74955596 19.79514447 14 22 C10.30581799 22 8.22163822 20.71820705 5 19 C5.33 18.34 5.66 17.68 6 17 C5.53152915 14.57179832 5.53152915 14.57179832 4.6875 11.9375 C4.42324219 11.03902344 4.15898437 10.14054688 3.88671875 9.21484375 C3.21713228 6.83184257 3.21713228 6.83184257 1 6 C0.375 2.9375 0.375 2.9375 0 0 Z " fill="#052F7D" transform="translate(242,208)"/>
<path d="M0 0 C0.99 0.33 1.98 0.66 3 1 C1.26153247 5.95711598 -1.39651719 10.31388969 -4.0625 14.8125 C-4.52205078 15.60076172 -4.98160156 16.38902344 -5.45507812 17.20117188 C-6.1134668 18.31782227 -6.1134668 18.31782227 -6.78515625 19.45703125 C-7.18613525 20.13741455 -7.58711426 20.81779785 -8.00024414 21.51879883 C-8.33016357 22.00759521 -8.66008301 22.4963916 -9 23 C-9.33 23 -9.66 23 -10 23 C-10 21.35 -10 19.7 -10 18 C-9.34 18 -8.68 18 -8 18 C-8 16.68 -8 15.36 -8 14 C-7.34 14 -6.68 14 -6 14 C-6 12.68 -6 11.36 -6 10 C-5.34 10 -4.68 10 -4 10 C-4 9.34 -4 8.68 -4 8 C-3.34 8 -2.68 8 -2 8 C-1.855625 7.4225 -1.71125 6.845 -1.5625 6.25 C-1.04166667 4.16666667 -0.52083333 2.08333333 0 0 Z " fill="#E15C9E" transform="translate(297,155)"/>
<path d="M0 0 C1 4 2 8 3 12 C2.01 11.67 1.02 11.34 0 11 C-0.4125 11.495 -0.825 11.99 -1.25 12.5 C-3 14 -3 14 -7 14 C-5.53967505 8.68972746 -3.01679014 4.53669968 0 0 Z " fill="#5488C9" transform="translate(257,155)"/>
<path d="M0 0 C0.66 0 1.32 0 2 0 C2.3125 3.3125 2.3125 3.3125 2 7 C1.2575 7.433125 0.515 7.86625 -0.25 8.3125 C-3.74362598 10.45631594 -5.33216114 13.21908868 -7.3125 16.6875 C-7.67150391 17.29400391 -8.03050781 17.90050781 -8.40039062 18.52539062 C-9.277546 20.01070705 -10.14026602 21.50453221 -11 23 C-11.33 22.34 -11.66 21.68 -12 21 C-11.01196289 18.84521484 -11.01196289 18.84521484 -9.47265625 16.2109375 C-8.92802734 15.26992188 -8.38339844 14.32890625 -7.82226562 13.359375 C-7.24154297 12.37453125 -6.66082031 11.3896875 -6.0625 10.375 C-5.48564453 9.38242187 -4.90878906 8.38984375 -4.31445312 7.3671875 C-2.88340126 4.90719752 -1.44500804 2.45180958 0 0 Z " fill="#DE5207" transform="translate(275,270)"/>
<path d="M0 0 C0.66 0 1.32 0 2 0 C4.90108294 3.82942948 5.53680089 7.27536912 6 12 C5.01 11.01 4.02 10.02 3 9 C2.67 9.33 2.34 9.66 2 10 C2.020625 11.134375 2.04125 12.26875 2.0625 13.4375 C2 17 2 17 0 19 C0 12.73 0 6.46 0 0 Z " fill="#990F18" transform="translate(319,269)"/>
<path d="M0 0 C4.61691161 0.52464905 6.09987886 1.07490914 10 4 C-0.23 4 -10.46 4 -21 4 C-21 3.67 -21 3.34 -21 3 C-14.4 3 -7.8 3 -1 3 C-0.67 2.01 -0.34 1.02 0 0 Z " fill="#15418A" transform="translate(243,226)"/>
<path d="M0 0 C3.7150579 3.16467895 5.65590449 6.80177594 7.8515625 11.07421875 C8.8566311 13.1529581 8.8566311 13.1529581 11 14 C11.625 17.0625 11.625 17.0625 12 20 C10.5 18.625 10.5 18.625 9 17 C9 16.34 9 15.68 9 15 C8.38125 14.95875 7.7625 14.9175 7.125 14.875 C6.073125 14.441875 6.073125 14.441875 5 14 C3.875 11 3.875 11 3 8 C2.34 7.67 1.68 7.34 1 7 C0.59270772 4.67843403 0.25561323 2.3431213 0 0 Z " fill="#6549B1" transform="translate(264,173)"/>
<path d="M0 0 C3 1 3 1 5 2 C6.03101947 4.31979381 7.02936517 6.65429915 8 9 C8.99 10.485 8.99 10.485 10 12 C10.125 14.6875 10.125 14.6875 10 17 C0 5.46153846 0 5.46153846 0 0 Z " fill="#AECC69" transform="translate(196,273)"/>
<path d="M0 0 C0.33 0.66 0.66 1.32 1 2 C0.67 2.66 0.34 3.32 0 4 C0.763125 4.103125 1.52625 4.20625 2.3125 4.3125 C5.17059424 5.04364039 6.15742885 5.76951913 8 8 C5.36 7.67 2.72 7.34 0 7 C-0.66 8.32 -1.32 9.64 -2 11 C-2.99 10.67 -3.98 10.34 -5 10 C-3.66511872 6.40608886 -2.03977277 3.24509304 0 0 Z " fill="#B34381" transform="translate(267,138)"/>
<path d="M0 0 C1.32 0 2.64 0 4 0 C4.61875 1.7634375 4.61875 1.7634375 5.25 3.5625 C6.34645249 6.53030168 7.61035439 9.17072339 9.25 11.875 C9.8275 12.90625 10.405 13.9375 11 15 C10.67 15.66 10.34 16.32 10 17 C8.70623653 14.91794343 7.41493446 12.83442696 6.125 10.75 C5.76019531 10.16347656 5.39539063 9.57695312 5.01953125 8.97265625 C3.20714706 6.0398891 1.46799733 3.12142589 0 0 Z " fill="#B21306" transform="translate(277,268)"/>
<path d="M0 0 C0.66 0.99 1.32 1.98 2 3 C1.01 3.495 1.01 3.495 0 4 C-0.69219298 5.71400167 -1.38379878 7.42824696 -2.0703125 9.14453125 C-3.49579179 11.98950042 -5.65015996 13.90419672 -8 16 C-6.83654502 9.95003409 -3.44000957 4.98208283 0 0 Z " fill="#E5BC12" transform="translate(234,269)"/>
<path d="M0 0 C1.20272819 2.40545638 1.10071472 3.94996953 1.0625 6.625 C1.05347656 7.44226563 1.04445312 8.25953125 1.03515625 9.1015625 C1.02355469 9.72804687 1.01195312 10.35453125 1 11 C0.34 11 -0.32 11 -1 11 C-1 10.34 -1 9.68 -1 9 C-1.99 9 -2.98 9 -4 9 C-4 9.99 -4 10.98 -4 12 C-4.66 12 -5.32 12 -6 12 C-4.68139111 7.38486888 -2.78644563 3.90102388 0 0 Z " fill="#4C5F91" transform="translate(233,197)"/>
<path d="M0 0 C0.33 0.99 0.66 1.98 1 3 C6.61 3.33 12.22 3.66 18 4 C18 4.33 18 4.66 18 5 C11.4 5 4.8 5 -2 5 C-1.34 3.35 -0.68 1.7 0 0 Z " fill="#F1B515" transform="translate(217,298)"/>
<path d="M0 0 C0.99 0 1.98 0 3 0 C1.56032356 5.23518706 -0.81696611 9.63026009 -4 14 C-4.33 14 -4.66 14 -5 14 C-5 12.02 -5 10.04 -5 8 C-4.01 8 -3.02 8 -2 8 C-2 7.01 -2 6.02 -2 5 C-1.34 5 -0.68 5 0 5 C0 3.35 0 1.7 0 0 Z " fill="#5E82B2" transform="translate(273,197)"/>
<path d="M0 0 C0.66 0.33 1.32 0.66 2 1 C2.40729228 3.32156597 2.74438677 5.6568787 3 8 C0.525 7.01 0.525 7.01 -2 6 C-2 4.68 -2 3.36 -2 2 C-1.34 2 -0.68 2 0 2 C0 1.34 0 0.68 0 0 Z " fill="#5D123D" transform="translate(297,148)"/>
<path d="M0 0 C2.375 0.5625 2.375 0.5625 5 2 C6.3125 5.625 6.3125 5.625 7 9 C6.34 9 5.68 9 5 9 C5 8.01 5 7.02 5 6 C4.34 6 3.68 6 3 6 C2.67 5.34 2.34 4.68 2 4 C0.68 4.33 -0.64 4.66 -2 5 C-1.34 3.35 -0.68 1.7 0 0 Z " fill="#952F62" transform="translate(275,124)"/>
<path d="M0 0 C0.6875 1.6875 0.6875 1.6875 1 4 C-0.3125 6.75 -0.3125 6.75 -2 9 C-2.66 9 -3.32 9 -4 9 C-4 9.99 -4 10.98 -4 12 C-4.66 12 -5.32 12 -6 12 C-4.68139111 7.38486888 -2.78644563 3.90102388 0 0 Z " fill="#83C58C" transform="translate(200,254)"/>
<path d="M0 0 C0.33 0.66 0.66 1.32 1 2 C-0.21484375 4.3828125 -0.21484375 4.3828125 -1.9375 7.125 C-2.50339844 8.03507813 -3.06929688 8.94515625 -3.65234375 9.8828125 C-4.09707031 10.58148438 -4.54179687 11.28015625 -5 12 C-5.33 10.68 -5.66 9.36 -6 8 C-5.34 8 -4.68 8 -4 8 C-4.33 6.68 -4.66 5.36 -5 4 C-3.35 2.68 -1.7 1.36 0 0 Z " fill="#866978" transform="translate(315,128)"/>
<path d="M0 0 C0.99 0.33 1.98 0.66 3 1 C3.33 2.65 3.66 4.3 4 6 C1.36 6 -1.28 6 -4 6 C-2.68 5.34 -1.36 4.68 0 4 C0 2.68 0 1.36 0 0 Z " fill="#A6383E" transform="translate(335,297)"/>
<path d="M0 0 C2.70058773 2.52054855 4.40337783 4.69271121 6 8 C6.66 8.33 7.32 8.66 8 9 C8 10.65 8 12.3 8 14 C0 4.57142857 0 4.57142857 0 0 Z " fill="#EB8E03" transform="translate(248,288)"/>
<path d="M0 0 C1 3 1 3 -0.21484375 5.48046875 C-0.78332031 6.37378906 -1.35179687 7.26710938 -1.9375 8.1875 C-2.50339844 9.08855469 -3.06929688 9.98960937 -3.65234375 10.91796875 C-4.09707031 11.60503906 -4.54179687 12.29210937 -5 13 C-5.68359375 11.296875 -5.68359375 11.296875 -6 9 C-4.78515625 6.640625 -4.78515625 6.640625 -3.0625 4.25 C-2.49660156 3.45078125 -1.93070312 2.6515625 -1.34765625 1.828125 C-0.90292969 1.22484375 -0.45820313 0.6215625 0 0 Z " fill="#FD9926" transform="translate(270,276)"/>
<path d="M0 0 C0.66 0 1.32 0 2 0 C5 4.38461538 5 4.38461538 5 7 C3.35 7 1.7 7 0 7 C0 4.69 0 2.38 0 0 Z " fill="#AB494F" transform="translate(319,269)"/>
<path d="M0 0 C0.66 0 1.32 0 2 0 C2.6875 1.6875 2.6875 1.6875 3 4 C1.5625 6.75 1.5625 6.75 0 9 C-1.125 7.3125 -1.125 7.3125 -2 5 C-1.125 2.25 -1.125 2.25 0 0 Z " fill="#E943A4" transform="translate(284,176)"/>
<path d="M0 0 C0.99 0 1.98 0 3 0 C1.80100302 3.0831351 0.52299523 6.06279492 -1 9 C-1.99 8.67 -2.98 8.34 -4 8 C-4 7.34 -4 6.68 -4 6 C-3.01 6 -2.02 6 -1 6 C-0.67 4.02 -0.34 2.04 0 0 Z " fill="#549979" transform="translate(239,256)"/>
<path d="M0 0 C1 3 1 3 0.4375 5.0625 C0.293125 5.701875 0.14875 6.34125 0 7 C0.66 7.66 1.32 8.32 2 9 C0.02 9 -1.96 9 -4 9 C-2.94124926 5.59687262 -1.99097846 2.98646769 0 0 Z " fill="#DD540C" transform="translate(261,294)"/>
<path d="M0 0 C3.20148213 2.13432142 3.52206739 2.68419896 4.6875 6.125 C4.93886719 6.84945313 5.19023437 7.57390625 5.44921875 8.3203125 C5.72185547 9.15175781 5.72185547 9.15175781 6 10 C3.525 9.01 3.525 9.01 1 8 C1.020625 7.236875 1.04125 6.47375 1.0625 5.6875 C1.12942841 2.89814214 1.12942841 2.89814214 0 0 Z " fill="#188B31" transform="translate(228,256)"/>
<path d="M0 0 C0.99 0 1.98 0 3 0 C3.99 3.3 4.98 6.6 6 10 C3.36335259 7.36335259 1.744776 5.24029829 0 2 C0 1.34 0 0.68 0 0 Z " fill="#0D5CAA" transform="translate(241,204)"/>
<path d="M0 0 C0.33 0 0.66 0 1 0 C1.33 2.31 1.66 4.62 2 7 C0.35 7 -1.3 7 -3 7 C-1.125 1.125 -1.125 1.125 0 0 Z " fill="#5AB0DE" transform="translate(238,188)"/>
<path d="M0 0 C0.6875 1.6875 0.6875 1.6875 1 4 C-0.3125 6.75 -0.3125 6.75 -2 9 C-2.66 9 -3.32 9 -4 9 C-2.94124926 5.59687262 -1.99097846 2.98646769 0 0 Z " fill="#B26589" transform="translate(272,129)"/>
<path d="M0 0 C0.33 0.66 0.66 1.32 1 2 C0.22265625 3.7265625 0.22265625 3.7265625 -0.9375 5.625 C-1.618125 6.73875 -2.29875 7.8525 -3 9 C-3.33 9 -3.66 9 -4 9 C-4 7.02 -4 5.04 -4 3 C-3.34 3 -2.68 3 -2 3 C-2 2.34 -2 1.68 -2 1 C-1.34 0.67 -0.68 0.34 0 0 Z " fill="#6F9D84" transform="translate(251,239)"/>
<path d="M0 0 C0.66 0 1.32 0 2 0 C1.38461538 5.53846154 1.38461538 5.53846154 -0.5625 7.875 C-1.036875 8.24625 -1.51125 8.6175 -2 9 C-2 7.35 -2 5.7 -2 4 C-1.34 4 -0.68 4 0 4 C0 2.68 0 1.36 0 0 Z " fill="#E25396" transform="translate(289,169)"/>
<path d="M0 0 C2.475 0.495 2.475 0.495 5 1 C5 3.62113708 4.68707555 5.50935112 4 8 C4 7.01 4 6.02 4 5 C3.34 5 2.68 5 2 5 C1.34 3.35 0.68 1.7 0 0 Z " fill="#C4169C" transform="translate(258,162)"/>
<path d="M0 0 C0.99 0 1.98 0 3 0 C3.66 2.31 4.32 4.62 5 7 C4.01 7.495 4.01 7.495 3 8 C0 2.25 0 2.25 0 0 Z " fill="#09762F" transform="translate(231,259)"/>
<path d="M0 0 C0.66 0 1.32 0 2 0 C1.75 2.375 1.75 2.375 1 5 C-1.0625 6.3125 -1.0625 6.3125 -3 7 C-2.67 5.68 -2.34 4.36 -2 3 C-1.34 3 -0.68 3 0 3 C0 2.01 0 1.02 0 0 Z " fill="#0A2761" transform="translate(229,206)"/>
<path d="M0 0 C0.33 0.66 0.66 1.32 1 2 C-0.25 4.625 -0.25 4.625 -2 7 C-2.99 7 -3.98 7 -5 7 C-5 6.01 -5 5.02 -5 4 C-4.01 4 -3.02 4 -2 4 C-2 3.01 -2 2.02 -2 1 C-1.34 0.67 -0.68 0.34 0 0 Z " fill="#E063B5" transform="translate(281,187)"/>
<path d="M0 0 C0.99 0.33 1.98 0.66 3 1 C1.125 5.75 1.125 5.75 0 8 C-0.66 8 -1.32 8 -2 8 C-1.33333333 5.33333333 -0.66666667 2.66666667 0 0 Z " fill="#B95F8E" transform="translate(297,155)"/>
<path d="M0 0 C2.86724686 0.57344937 3.8614515 0.8614515 6 3 C6.125 5.625 6.125 5.625 6 8 C5.38125 7.195625 4.7625 6.39125 4.125 5.5625 C2.25835959 2.96125481 2.25835959 2.96125481 0 2 C0 1.34 0 0.68 0 0 Z " fill="#1B5FA6" transform="translate(234,195)"/>
<path d="M0 0 C3 1 3 1 3 1 Z " fill="#FFFFFF" transform="translate(317,265)"/>
<path d="M0 0 C3 1 3 1 3 1 Z " fill="#FFFFFF" transform="translate(316,120)"/>
</svg>
